<svg width="200" height="40" viewBox="0 0 200 40" fill="none" xmlns="http://www.w3.org/2000/svg">
<path d="M21.5852 4.87879C21.0868 3.34379 18.9152 3.34379 18.4152 4.87879L15.8835 12.6688C15.7745 13.0032 15.5624 13.2946 15.2777 13.5011C14.993 13.7077 14.6502 13.8189 14.2985 13.8188H6.10849C4.49516 13.8188 3.82183 15.8855 5.12849 16.8355L11.7552 21.6488C12.0398 21.8557 12.2517 22.1475 12.3603 22.4822C12.469 22.8169 12.469 23.1774 12.3602 23.5121L9.83016 31.3021C9.33016 32.8371 11.0885 34.1155 12.3935 33.1655L19.0202 28.3521C19.305 28.1451 19.648 28.0336 20.0002 28.0336C20.3523 28.0336 20.6953 28.1451 20.9802 28.3521L27.6068 33.1655C28.9118 34.1155 30.6702 32.8388 30.1702 31.3021L27.6402 23.5121C27.5314 23.1774 27.5313 22.8169 27.64 22.4822C27.7487 22.1475 27.9605 21.8557 28.2452 21.6488L34.8718 16.8355C36.1768 15.8855 35.5068 13.8188 33.8918 13.8188H25.7002C25.3487 13.8185 25.0063 13.7072 24.7219 13.5006C24.4376 13.2941 24.2258 13.0029 24.1168 12.6688L21.5852 4.87879Z" fill="#FFD700"/>
<path d="M61.5852 4.87879C61.0868 3.34379 58.9152 3.34379 58.4152 4.87879L55.8835 12.6688C55.7745 13.0032 55.5624 13.2946 55.2777 13.5011C54.993 13.7077 54.6502 13.8189 54.2985 13.8188H46.1085C44.4952 13.8188 43.8218 15.8855 45.1285 16.8355L51.7552 21.6488C52.0398 21.8557 52.2517 22.1475 52.3603 22.4822C52.469 22.8169 52.469 23.1774 52.3602 23.5121L49.8302 31.3021C49.3302 32.8371 51.0885 34.1155 52.3935 33.1655L59.0202 28.3521C59.305 28.1451 59.648 28.0336 60.0002 28.0336C60.3523 28.0336 60.6953 28.1451 60.9802 28.3521L67.6068 33.1655C68.9118 34.1155 70.6702 32.8388 70.1702 31.3021L67.6402 23.5121C67.5314 23.1774 67.5313 22.8169 67.64 22.4822C67.7487 22.1475 67.9605 21.8557 68.2452 21.6488L74.8718 16.8355C76.1768 15.8855 75.5068 13.8188 73.8918 13.8188H65.7002C65.3487 13.8185 65.0063 13.7072 64.7219 13.5006C64.4376 13.2941 64.2258 13.0029 64.1168 12.6688L61.5852 4.87879Z" fill="#FFD700"/>
<path d="M101.585 4.87879C101.087 3.34379 98.9152 3.34379 98.4152 4.87879L95.8835 12.6688C95.7745 13.0032 95.5624 13.2946 95.2777 13.5011C94.993 13.7077 94.6502 13.8189 94.2985 13.8188H86.1085C84.4952 13.8188 83.8218 15.8855 85.1285 16.8355L91.7552 21.6488C92.0398 21.8557 92.2517 22.1475 92.3603 22.4822C92.469 22.8169 92.469 23.1774 92.3602 23.5121L89.8302 31.3021C89.3302 32.8371 91.0885 34.1155 92.3935 33.1655L99.0202 28.3521C99.305 28.1451 99.648 28.0336 100 28.0336C100.352 28.0336 100.695 28.1451 100.98 28.3521L107.607 33.1655C108.912 34.1155 110.67 32.8388 110.17 31.3021L107.64 23.5121C107.531 23.1774 107.531 22.8169 107.64 22.4822C107.749 22.1475 107.961 21.8557 108.245 21.6488L114.872 16.8355C116.177 15.8855 115.507 13.8188 113.892 13.8188H105.7C105.349 13.8185 105.006 13.7072 104.722 13.5006C104.438 13.2941 104.226 13.0029 104.117 12.6688L101.585 4.87879Z" fill="#FFD700"/>
<path d="M141.585 4.87879C141.087 3.34379 138.915 3.34379 138.415 4.87879L135.883 12.6688C135.774 13.0032 135.562 13.2946 135.278 13.5011C134.993 13.7077 134.65 13.8189 134.298 13.8188H126.108C124.495 13.8188 123.822 15.8855 125.128 16.8355L131.755 21.6488C132.04 21.8557 132.252 22.1475 132.36 22.4822C132.469 22.8169 132.469 23.1774 132.36 23.5121L129.83 31.3021C129.33 32.8371 131.088 34.1155 132.393 33.1655L139.02 28.3521C139.305 28.1451 139.648 28.0336 140 28.0336C140.352 28.0336 140.695 28.1451 140.98 28.3521L147.607 33.1655C148.912 34.1155 150.67 32.8388 150.17 31.3021L147.64 23.5121C147.531 23.1774 147.531 22.8169 147.64 22.4822C147.749 22.1475 147.961 21.8557 148.245 21.6488L154.872 16.8355C156.177 15.8855 155.507 13.8188 153.892 13.8188H145.7C145.349 13.8185 145.006 13.7072 144.722 13.5006C144.438 13.2941 144.226 13.0029 144.117 12.6688L141.585 4.87879Z" fill="#FFD700"/>
<path d="M181.585 4.87879C181.087 3.34379 178.915 3.34379 178.415 4.87879L175.883 12.6688C175.774 13.0032 175.562 13.2946 175.278 13.5011C174.993 13.7077 174.65 13.8189 174.298 13.8188H166.108C164.495 13.8188 163.822 15.8855 165.128 16.8355L171.755 21.6488C172.04 21.8557 172.252 22.1475 172.36 22.4822C172.469 22.8169 172.469 23.1774 172.36 23.5121L169.83 31.3021C169.33 32.8371 171.088 34.1155 172.393 33.1655L179.02 28.3521C179.305 28.1451 179.648 28.0336 180 28.0336C180.352 28.0336 180.695 28.1451 180.98 28.3521L187.607 33.1655C188.912 34.1155 190.67 32.8388 190.17 31.3021L187.64 23.5121C187.531 23.1774 187.531 22.8169 187.64 22.4822C187.749 22.1475 187.961 21.8557 188.245 21.6488L194.872 16.8355C196.177 15.8855 195.507 13.8188 193.892 13.8188H185.7C185.349 13.8185 185.006 13.7072 184.722 13.5006C184.438 13.2941 184.226 13.0029 184.117 12.6688L181.585 4.87879Z" fill="#FFD700"/>
</svg>
