<svg width="28" height="21" viewBox="0 0 28 21" fill="none" xmlns="http://www.w3.org/2000/svg">
<path d="M0 13.2822C0 10.7378 0.950783 8.28722 2.85235 5.93035C4.7807 3.57348 6.9233 1.85939 9.28017 0.788086L10.0435 2.39504C8.1687 3.46635 6.56174 4.80548 5.22261 6.41243C3.91026 7.99261 3.25409 9.59956 3.25409 11.2333C3.25409 11.5547 3.34783 11.7957 3.5353 11.9564C3.74957 12.1171 4.01739 12.1975 4.33878 12.1975C6.07965 12.01 7.01704 11.9163 7.15096 11.9163C8.03478 11.9163 8.98557 12.2376 10.0033 12.8804C11.0478 13.5232 11.5701 14.6213 11.5701 16.1747C11.5701 17.487 11.1416 18.5985 10.2845 19.5091C9.42748 20.4197 8.20887 20.875 6.6287 20.875C4.7807 20.875 3.21391 20.1653 1.92835 18.7458C0.642783 17.2996 0 15.4783 0 13.2822ZM15.8799 13.6036C15.8799 10.7378 16.8441 8.1533 18.7725 5.85C20.7276 3.51991 22.8568 1.83261 25.1601 0.788086L25.9234 2.39504C24.0486 3.46635 22.4417 4.79209 21.1026 6.37226C19.7902 7.92565 19.134 9.51922 19.134 11.153C19.134 11.4476 19.2144 11.702 19.3751 11.9163C19.5358 12.1037 19.817 12.1975 20.2187 12.1975C21.9328 12.01 22.8702 11.9163 23.0309 11.9163C24.0219 11.9163 24.9994 12.2778 25.9636 13.001C26.9546 13.6973 27.45 14.7418 27.45 16.1345C27.45 17.2326 27.0617 18.3039 26.285 19.3484C25.5351 20.3662 24.2629 20.875 22.4685 20.875C20.5401 20.875 18.9599 20.1385 17.7279 18.6655C16.4959 17.1656 15.8799 15.4783 15.8799 13.6036Z" fill="#2762F8"/>
</svg>
