<svg width="32" height="24" viewBox="0 0 32 24" fill="none" xmlns="http://www.w3.org/2000/svg">
<path d="M0 14.928C0 11.888 1.10838 8.96 3.32514 6.144C5.57312 3.328 8.07088 1.28 10.8184 0L11.7082 1.92C9.5227 3.2 7.64938 4.8 6.08828 6.72C4.5584 8.608 3.79347 10.528 3.79347 12.48C3.79347 12.864 3.90274 13.152 4.1213 13.344C4.37107 13.536 4.68329 13.632 5.05796 13.632C7.08738 13.408 8.18015 13.296 8.33626 13.296C9.36659 13.296 10.475 13.68 11.6614 14.448C12.8791 15.216 13.4879 16.528 13.4879 18.384C13.4879 19.952 12.9883 21.28 11.9892 22.368C10.9901 23.456 9.56953 24 7.72743 24C5.57312 24 3.74663 23.152 2.24798 21.456C0.749327 19.728 0 17.552 0 14.928ZM18.5121 15.312C18.5121 11.888 19.6361 8.8 21.8841 6.048C24.1633 3.264 26.6454 1.248 29.3305 0L30.2203 1.92C28.0348 3.2 26.1615 4.784 24.6004 6.672C23.0705 8.528 22.3056 10.432 22.3056 12.384C22.3056 12.736 22.3993 13.04 22.5866 13.296C22.7739 13.52 23.1017 13.632 23.5701 13.632C25.5683 13.408 26.661 13.296 26.8484 13.296C28.0036 13.296 29.1432 13.728 30.2672 14.592C31.4224 15.424 32 16.672 32 18.336C32 19.648 31.5473 20.928 30.6418 22.176C29.7676 23.392 28.2846 24 26.1927 24C23.9447 24 22.1026 23.12 20.6664 21.36C19.2302 19.568 18.5121 17.552 18.5121 15.312Z" fill="#00FFF7"/>
</svg>
